<?xml version="1.0" encoding="utf-8"?>
<!-- Generator: Adobe Illustrator 22.0.0, SVG Export Plug-In . SVG Version: 6.00 Build 0)  -->
<svg version="1.1" id="Layer_1" xmlns="http://www.w3.org/2000/svg" xmlns:xlink="http://www.w3.org/1999/xlink" x="0px" y="0px"
	 viewBox="0 0 1320 234" style="enable-background:new 0 0 1320 234;" xml:space="preserve">
<style type="text/css">
	.st0{fill:url(#Fill-2_1_);}
	.st1{fill:url(#Fill-3_1_);}
	.st2{fill:url(#Fill-4_1_);}
	.st3{fill:url(#Fill-5_1_);}
	.st4{fill:url(#Fill-6_1_);}
	.st5{fill:url(#Fill-7_1_);}
	.st6{fill:url(#Fill-8_1_);}
	.st7{fill:url(#Fill-9_1_);}
	.st8{fill:url(#Fill-10_1_);}
	.st9{fill:url(#SVGID_1_);}
	.st10{fill:url(#SVGID_2_);}
	.st11{fill:url(#SVGID_3_);}
	.st12{fill:url(#SVGID_4_);}
	.st13{fill:url(#SVGID_5_);}
	.st14{fill:url(#SVGID_6_);}
	.st15{fill:url(#SVGID_7_);}
	.st16{opacity:0.3;fill:url(#SVGID_8_);}
	.st17{opacity:0.3;fill:url(#SVGID_9_);}
	.st18{opacity:0.3;fill:url(#SVGID_10_);}
	.st19{opacity:0.3;fill:url(#SVGID_11_);}
</style>
<g>
	<g id="Group-3-Copy_8_" transform="translate(193.563660, 20.561364)">
		<linearGradient id="Fill-2_1_" gradientUnits="userSpaceOnUse" x1="-286.9408" y1="-1174.9664" x2="292.1057" y2="309.1446">
			<stop  offset="0" style="stop-color:#09DEF8"/>
			<stop  offset="1" style="stop-color:#3A92F3"/>
		</linearGradient>
		<path id="Fill-2_8_" class="st0" d="M262.3,55.9l-16,16c-10.8-12-23.2-18-36.8-18c-11.5,0-21.2,4.2-29,12.3
			c-7.8,8.2-11.8,18.3-11.8,30.3c0,8.3,1.7,15.8,5.2,22.3c3.5,6.5,8.5,11.7,14.8,15.3c6.3,3.7,13.5,5.5,21.3,5.5
			c6.7,0,12.7-1.3,18.2-3.8c5.5-2.7,11.5-7.3,18.2-14.2l15.5,16.8c-8.8,9-17.3,15.3-25.2,18.8c-7.8,3.5-16.8,5.2-27,5.2
			c-18.7,0-34-6.2-45.8-18.5C152,131.7,146,115.9,146,96.6c0-12.5,2.7-23.7,8.2-33.3c5.3-9.7,13.2-17.5,23.3-23.5
			c10.2-6,21-8.8,32.7-8.8c10,0,19.5,2.2,28.7,6.7C247.8,41.6,255.8,47.7,262.3,55.9"/>
		<linearGradient id="Fill-3_1_" gradientUnits="userSpaceOnUse" x1="-200.6005" y1="-1208.6533" x2="378.4461" y2="275.4577">
			<stop  offset="0" style="stop-color:#09DEF8"/>
			<stop  offset="1" style="stop-color:#3A92F3"/>
		</linearGradient>
		<path id="Fill-3_8_" class="st1" d="M280,30.6h22.2v45.2c4.3-4,8.8-6.8,13.2-8.8c4.3-2,8.8-3,13.3-3c8.8,0,16.3,3.2,22.3,9.7
			c5.2,5.5,7.8,13.7,7.8,24.3v61.3h-22v-40.7c0-10.8-0.5-18-1.5-21.8s-2.7-6.7-5-8.5c-2.3-1.8-5.3-2.8-8.8-2.8
			c-4.5,0-8.5,1.5-11.7,4.7c-3.2,3.2-5.5,7.3-6.7,12.8c-0.7,2.8-1,9.2-1,19.2v37.3H280V30.6"/>
		<linearGradient id="Fill-4_1_" gradientUnits="userSpaceOnUse" x1="-107.0311" y1="-1245.1606" x2="472.0155" y2="238.9503">
			<stop  offset="0" style="stop-color:#09DEF8"/>
			<stop  offset="1" style="stop-color:#3A92F3"/>
		</linearGradient>
		<path id="Fill-4_8_" class="st2" d="M469.4,119.7h-71.7c1,6.7,3.8,11.8,8.3,15.7c4.5,3.8,10.2,5.8,17.2,5.8c8.3,0,15.5-3,21.5-9.2
			l18.8,9.2c-4.7,7-10.3,12-16.8,15.3c-6.5,3.3-14.3,5-23.3,5c-14,0-25.3-4.7-34-13.8c-8.8-9.2-13.2-20.7-13.2-34.5
			c0-14.2,4.3-26,13.2-35.3c8.8-9.3,19.7-14,32.8-14c14,0,25.3,4.7,34.2,14c8.8,9.3,13.2,21.7,13.2,37.2L469.4,119.7L469.4,119.7
			L469.4,119.7z M447.1,101.2c-1.5-5.2-4.3-9.3-8.7-12.7c-4.3-3.2-9.3-4.8-15.2-4.8c-6.2,0-11.7,1.8-16.3,5.5c-3,2.3-5.7,6.3-8.2,12
			H447.1L447.1,101.2L447.1,101.2z"/>
		<linearGradient id="Fill-5_1_" gradientUnits="userSpaceOnUse" x1="-12.0091" y1="-1282.2349" x2="567.0375" y2="201.8761">
			<stop  offset="0" style="stop-color:#09DEF8"/>
			<stop  offset="1" style="stop-color:#3A92F3"/>
		</linearGradient>
		<path id="Fill-5_8_" class="st3" d="M574.4,85.2l-18.5,10.7c-3.5-3.8-7-6.5-10.3-8c-3.3-1.5-7.3-2.2-12-2.2
			c-8.3,0-15.2,2.7-20.2,7.8c-5.2,5.2-7.7,11.8-7.7,20c0,7.8,2.5,14.3,7.5,19.3c5,5,11.5,7.5,19.5,7.5c10,0,17.7-3.5,23.3-10.7
			l17.5,12.5c-9.5,12.8-23,19.3-40.3,19.3c-15.7,0-27.8-4.8-36.7-14.5c-8.8-9.7-13.3-21-13.3-34c0-9,2.2-17.3,6.5-24.8
			c4.3-7.5,10.3-13.5,18-17.8c7.7-4.3,16.3-6.5,25.8-6.5c8.8,0,16.7,1.8,23.8,5.5C564.2,73.2,569.9,78.6,574.4,85.2"/>
		<linearGradient id="Fill-6_1_" gradientUnits="userSpaceOnUse" x1="78.3516" y1="-1317.4904" x2="657.3981" y2="166.6206">
			<stop  offset="0" style="stop-color:#09DEF8"/>
			<stop  offset="1" style="stop-color:#3A92F3"/>
		</linearGradient>
		<path id="Fill-6_8_" class="st4" d="M594.7,30.6h22.3v74.2l32.8-38.3h28l-38.2,44.5l42.8,48.3h-27.7l-37.7-42.8v42.8h-22.3V30.6"
			/>
		<linearGradient id="Fill-7_1_" gradientUnits="userSpaceOnUse" x1="160.1823" y1="-1349.4177" x2="739.2288" y2="134.6933">
			<stop  offset="0" style="stop-color:#09DEF8"/>
			<stop  offset="1" style="stop-color:#3A92F3"/>
		</linearGradient>
		<path id="Fill-7_8_" class="st5" d="M713.7,30.6v46.2c4-4.2,8.3-7.3,13-9.5c4.7-2.2,9.7-3.2,15-3.2c11.7,0,21.5,4.7,29.7,13.8
			c8.2,9.2,12.2,21,12.2,35.3c0,13.8-4.2,25.3-12.5,34.7c-8.3,9.3-18.3,14-29.8,14c-5.2,0-9.8-1-14.3-2.8c-4.3-2-8.8-5-13.2-9.3v9.8
			h-22.2v-129H713.7L713.7,30.6L713.7,30.6z M737.2,85.6c-7,0-12.8,2.5-17.5,7.5c-4.7,5-7,11.5-7,19.7c0,8.3,2.3,15,7,20
			c4.7,5.2,10.5,7.7,17.5,7.7c6.8,0,12.5-2.7,17.2-7.8c4.7-5.2,7-11.8,7-19.8c0-8-2.3-14.5-6.8-19.5
			C750.1,88.2,744.2,85.6,737.2,85.6L737.2,85.6L737.2,85.6z"/>
		<linearGradient id="Fill-8_1_" gradientUnits="userSpaceOnUse" x1="258.773" y1="-1387.8843" x2="837.8196" y2="96.2267">
			<stop  offset="0" style="stop-color:#09DEF8"/>
			<stop  offset="1" style="stop-color:#3A92F3"/>
		</linearGradient>
		<path id="Fill-8_8_" class="st6" d="M843.9,64.1c8.3,0,16.3,2.2,23.7,6.7c7.3,4.3,13.2,10.3,17.3,17.8c4.2,7.5,6.2,15.7,6.2,24.3
			c0,8.8-2.2,17-6.2,24.7c-4.2,7.7-9.8,13.5-17,17.8c-7.2,4.3-15.2,6.5-23.8,6.5c-12.7,0-23.7-4.8-32.7-14.2
			c-9-9.5-13.5-21-13.5-34.5c0-14.5,5.2-26.7,15.3-36.3C821.9,68.2,832.2,64.1,843.9,64.1L843.9,64.1L843.9,64.1z M844.2,86.1
			c-7,0-12.7,2.5-17.3,7.5c-4.7,5-6.8,11.5-6.8,19.3c0,8.2,2.3,14.7,6.8,19.7c4.5,5,10.3,7.5,17.3,7.5c7,0,12.8-2.5,17.3-7.7
			c4.7-5,7-11.5,7-19.5c0-8-2.3-14.5-6.8-19.3C857,88.6,851.2,86.1,844.2,86.1L844.2,86.1L844.2,86.1z"/>
		<linearGradient id="Fill-9_1_" gradientUnits="userSpaceOnUse" x1="351.6219" y1="-1424.1105" x2="930.6685" y2="60.0004">
			<stop  offset="0" style="stop-color:#09DEF8"/>
			<stop  offset="1" style="stop-color:#3A92F3"/>
		</linearGradient>
		<path id="Fill-9_8_" class="st7" d="M950.9,64.1c8.3,0,16.3,2.2,23.7,6.7c7.3,4.3,13.2,10.3,17.3,17.8c4.2,7.5,6.2,15.7,6.2,24.3
			c0,8.8-2.2,17-6.2,24.7c-4.2,7.7-9.8,13.5-17,17.8c-7.2,4.3-15.2,6.5-23.8,6.5c-12.7,0-23.7-4.8-32.7-14.2
			c-9-9.5-13.5-21-13.5-34.5c0-14.5,5.2-26.7,15.3-36.3C929,68.2,939.4,64.1,950.9,64.1L950.9,64.1L950.9,64.1z M951.2,86.1
			c-6.8,0-12.7,2.5-17.3,7.5c-4.7,5-6.8,11.5-6.8,19.3c0,8.2,2.3,14.7,6.8,19.7c4.5,5,10.3,7.5,17.3,7.5c7,0,12.8-2.5,17.3-7.7
			c4.7-5,7-11.5,7-19.5c0-8-2.3-14.5-6.8-19.3C964.2,88.6,958.4,86.1,951.2,86.1L951.2,86.1L951.2,86.1z"/>
		<linearGradient id="Fill-10_1_" gradientUnits="userSpaceOnUse" x1="444.2523" y1="-1460.2516" x2="1023.2989" y2="23.8594">
			<stop  offset="0" style="stop-color:#09DEF8"/>
			<stop  offset="1" style="stop-color:#3A92F3"/>
		</linearGradient>
		<path id="Fill-10_8_" class="st8" d="M1016.3,30.6h22.3v74.2l32.8-38.3h28l-38.2,44.5l42.8,48.3h-27.7l-37.7-42.8v42.8h-22.3V30.6
			"/>
	</g>
	<g>
		<g>
			<linearGradient id="SVGID_1_" gradientUnits="userSpaceOnUse" x1="-90.5676" y1="-5.012" x2="190.3394" y2="234.0406">
				<stop  offset="0" style="stop-color:#09DEF8"/>
				<stop  offset="1" style="stop-color:#3A92F3"/>
			</linearGradient>
			<polygon class="st9" points="53,18.1 53,216.2 23.3,186.5 23.3,47.7 23.3,47.7 			"/>
			<linearGradient id="SVGID_2_" gradientUnits="userSpaceOnUse" x1="-48.9704" y1="-53.8923" x2="231.9366" y2="185.1604">
				<stop  offset="0" style="stop-color:#09DEF8"/>
				<stop  offset="1" style="stop-color:#3A92F3"/>
			</linearGradient>
			<path class="st10" d="M167.9,85.1v10c0,5.5-4.4,9.9-9.7,9.9H78.9V75.5h79.3c1.7,0,3.3,0.4,4.7,1.1
				C166,78.3,167.9,81.5,167.9,85.1z"/>
			<linearGradient id="SVGID_3_" gradientUnits="userSpaceOnUse" x1="-74.4155" y1="-23.9921" x2="206.4915" y2="215.0606">
				<stop  offset="0" style="stop-color:#09DEF8"/>
				<stop  offset="1" style="stop-color:#3A92F3"/>
			</linearGradient>
			<path class="st11" d="M167.9,136.8v10c0,5.5-4.4,9.7-9.7,9.7H78.9V127h79.3C163.7,127,167.9,131.4,167.9,136.8z"/>
			<linearGradient id="SVGID_4_" gradientUnits="userSpaceOnUse" x1="-26.0359" y1="-80.8422" x2="254.8711" y2="158.2104">
				<stop  offset="0" style="stop-color:#09DEF8"/>
				<stop  offset="1" style="stop-color:#3A92F3"/>
			</linearGradient>
			<polygon class="st12" points="221.4,47.6 23.3,47.6 53,18 191.7,18 206.6,32.8 			"/>
			<linearGradient id="SVGID_5_" gradientUnits="userSpaceOnUse" x1="-96.7526" y1="2.2559" x2="184.1544" y2="241.3085">
				<stop  offset="0" style="stop-color:#09DEF8"/>
				<stop  offset="1" style="stop-color:#3A92F3"/>
			</linearGradient>
			<polygon class="st13" points="221.4,186.5 221.4,186.6 191.8,216.2 191.7,216.1 191.7,216.1 53,216.1 53,216.1 23.3,186.5 			"/>
			<linearGradient id="SVGID_6_" gradientUnits="userSpaceOnUse" x1="-58.2194" y1="-43.0238" x2="222.6876" y2="196.0288">
				<stop  offset="0" style="stop-color:#09DEF8"/>
				<stop  offset="1" style="stop-color:#3A92F3"/>
			</linearGradient>
			<polygon class="st14" points="221.6,148.4 221.6,186.5 221.5,186.5 221.4,186.5 191.7,216.2 191.5,216.2 191.5,216.2 
				191.5,216.2 191.5,148.4 			"/>
			<linearGradient id="SVGID_7_" gradientUnits="userSpaceOnUse" x1="-0.1281" y1="-111.286" x2="280.7789" y2="127.7666">
				<stop  offset="0" style="stop-color:#09DEF8"/>
				<stop  offset="1" style="stop-color:#3A92F3"/>
			</linearGradient>
			<polygon class="st15" points="221.6,47.7 221.6,85.7 191.5,85.7 191.5,18 206.6,32.9 			"/>
		</g>
		<g>
			
				<linearGradient id="SVGID_8_" gradientUnits="userSpaceOnUse" x1="79.8416" y1="-52.3714" x2="124.4199" y2="-52.3714" gradientTransform="matrix(1 0 0 1 67.3311 253.6738)">
				<stop  offset="0" style="stop-color:#000000;stop-opacity:0"/>
				<stop  offset="1" style="stop-color:#000000"/>
			</linearGradient>
			<rect x="147.2" y="186.5" class="st16" width="44.6" height="29.6"/>
			
				<linearGradient id="SVGID_9_" gradientUnits="userSpaceOnUse" x1="79.8416" y1="-220.8454" x2="124.4199" y2="-220.8454" gradientTransform="matrix(1 0 0 1 67.3311 253.6738)">
				<stop  offset="0" style="stop-color:#000000;stop-opacity:0"/>
				<stop  offset="1" style="stop-color:#000000"/>
			</linearGradient>
			<rect x="147.2" y="18" class="st17" width="44.6" height="29.6"/>
			<linearGradient id="SVGID_10_" gradientUnits="userSpaceOnUse" x1="38.0851" y1="85.574" x2="38.0851" y2="47.6481">
				<stop  offset="0" style="stop-color:#000000;stop-opacity:0"/>
				<stop  offset="1" style="stop-color:#000000"/>
			</linearGradient>
			<rect x="23.3" y="47.6" class="st18" width="29.6" height="37.9"/>
			<linearGradient id="SVGID_11_" gradientUnits="userSpaceOnUse" x1="38.0851" y1="148.5308" x2="38.0851" y2="186.4569">
				<stop  offset="0" style="stop-color:#000000;stop-opacity:0"/>
				<stop  offset="1" style="stop-color:#000000"/>
			</linearGradient>
			<rect x="23.3" y="148.5" class="st19" width="29.6" height="37.9"/>
		</g>
	</g>
</g>
</svg>
