<?xml version="1.0" encoding="utf-8"?>
<!-- Generator: Adobe Illustrator 19.1.0, SVG Export Plug-In . SVG Version: 6.00 Build 0)  -->
<!DOCTYPE svg PUBLIC "-//W3C//DTD SVG 1.1//EN" "http://www.w3.org/Graphics/SVG/1.1/DTD/svg11.dtd">
<svg version="1.1" id="Layer_1" xmlns:sketch="http://www.bohemiancoding.com/sketch/ns"
	 xmlns="http://www.w3.org/2000/svg" xmlns:xlink="http://www.w3.org/1999/xlink" x="0px" y="0px" viewBox="366 -10 768.8 119"
	 style="enable-background:new 366 -10 768.8 119;" xml:space="preserve">
<style type="text/css">
	.st0{fill:#1C75BC;}
</style>
<title>logo-ver-1</title>
<desc>Created with Sketch.</desc>
<g id="Page-1_1_" sketch:type="MSPage">
	<g id="logo-ver-1" sketch:type="MSArtboardGroup">
		<g id="checkbook_logo-copy" transform="translate(116.000000, 260.000000)" sketch:type="MSLayerGroup">
			<g id="checkbook_logo_1_" sketch:type="MSShapeGroup">
				<g id="Page-1">
					<g id="checkbook_logo">
						<g id="Group-Copy">
							<path id="Rectangle-1" class="st0" d="M267.8-168.9v-83.3H351v17.8h17.8V-270H250v119h118.8v-35.7H351v17.8H267.8
								L267.8-168.9L267.8-168.9z M283.3-235.5h47.6c3.3,0,5.9,2.7,5.9,5.9v6c0,3.3-2.7,5.9-5.9,5.9h-47.6V-235.5L283.3-235.5
								L283.3-235.5z M283.3-204.6h47.6c3.3,0,5.9,2.7,5.9,5.9v6c0,3.3-2.7,5.9-5.9,5.9h-47.6V-204.6L283.3-204.6L283.3-204.6z"/>
						</g>
						<g id="Group-3-Copy" transform="translate(193.563660, 20.561364)">
							<path id="Fill-2" class="st0" d="M320-254.8l-9.6,9.6c-6.5-7.2-13.9-10.8-22.1-10.8c-6.9,0-12.7,2.5-17.4,7.4
								c-4.7,4.9-7.1,11-7.1,18.2c0,5,1,9.5,3.1,13.4c2.1,3.9,5.1,7,8.9,9.2c3.8,2.2,8.1,3.3,12.8,3.3c4,0,7.6-0.8,10.9-2.3
								c3.3-1.6,6.9-4.4,10.9-8.5l9.3,10.1c-5.3,5.4-10.4,9.2-15.1,11.3s-10.1,3.1-16.2,3.1c-11.2,0-20.4-3.7-27.5-11.1
								c-7.1-7.4-10.7-16.9-10.7-28.5c0-7.5,1.6-14.2,4.9-20c3.2-5.8,7.9-10.5,14-14.1c6.1-3.6,12.6-5.3,19.6-5.3
								c6,0,11.7,1.3,17.2,4C311.3-263.4,316.1-259.7,320-254.8"/>
							<path id="Fill-3" class="st0" d="M330.6-270h13.3v27.1c2.6-2.4,5.3-4.1,7.9-5.3c2.6-1.2,5.3-1.8,8-1.8
								c5.3,0,9.8,1.9,13.4,5.8c3.1,3.3,4.7,8.2,4.7,14.6v36.8h-13.2v-24.4c0-6.5-0.3-10.8-0.9-13.1c-0.6-2.3-1.6-4-3-5.1
								c-1.4-1.1-3.2-1.7-5.3-1.7c-2.7,0-5.1,0.9-7,2.8c-1.9,1.9-3.3,4.4-4,7.7c-0.4,1.7-0.6,5.5-0.6,11.5v22.4h-13.3V-270"/>
							<path id="Fill-4" class="st0" d="M444.3-216.5h-43c0.6,4,2.3,7.1,5,9.4c2.7,2.3,6.1,3.5,10.3,3.5c5,0,9.3-1.8,12.9-5.5
								l11.3,5.5c-2.8,4.2-6.2,7.2-10.1,9.2c-3.9,2-8.6,3-14,3c-8.4,0-15.2-2.8-20.4-8.3c-5.3-5.5-7.9-12.4-7.9-20.7
								c0-8.5,2.6-15.6,7.9-21.2c5.3-5.6,11.8-8.4,19.7-8.4c8.4,0,15.2,2.8,20.5,8.4c5.3,5.6,7.9,13,7.9,22.3L444.3-216.5
								L444.3-216.5L444.3-216.5z M430.9-227.6c-0.9-3.1-2.6-5.6-5.2-7.6c-2.6-1.9-5.6-2.9-9.1-2.9c-3.7,0-7,1.1-9.8,3.3
								c-1.8,1.4-3.4,3.8-4.9,7.2H430.9L430.9-227.6L430.9-227.6z"/>
							<path id="Fill-5" class="st0" d="M507.3-237.2l-11.1,6.4c-2.1-2.3-4.2-3.9-6.2-4.8c-2-0.9-4.4-1.3-7.2-1.3
								c-5,0-9.1,1.6-12.1,4.7c-3.1,3.1-4.6,7.1-4.6,12c0,4.7,1.5,8.6,4.5,11.6c3,3,6.9,4.5,11.7,4.5c6,0,10.6-2.1,14-6.4l10.5,7.5
								c-5.7,7.7-13.8,11.6-24.2,11.6c-9.4,0-16.7-2.9-22-8.7c-5.3-5.8-8-12.6-8-20.4c0-5.4,1.3-10.4,3.9-14.9
								c2.6-4.5,6.2-8.1,10.8-10.7c4.6-2.6,9.8-3.9,15.5-3.9c5.3,0,10,1.1,14.3,3.3C501.2-244.4,504.6-241.2,507.3-237.2"/>
							<path id="Fill-6" class="st0" d="M519.5-270h13.4v44.5l19.7-23h16.8l-22.9,26.7l25.7,29h-16.6l-22.6-25.7v25.7h-13.4V-270"/>
							<path id="Fill-7" class="st0" d="M590.9-270v27.7c2.4-2.5,5-4.4,7.8-5.7c2.8-1.3,5.8-1.9,9-1.9c7,0,12.9,2.8,17.8,8.3
								c4.9,5.5,7.3,12.6,7.3,21.2c0,8.3-2.5,15.2-7.5,20.8c-5,5.6-11,8.4-17.9,8.4c-3.1,0-5.9-0.6-8.6-1.7c-2.6-1.2-5.3-3-7.9-5.6
								v5.9h-13.3V-270H590.9L590.9-270L590.9-270z M605-237c-4.2,0-7.7,1.5-10.5,4.5c-2.8,3-4.2,6.9-4.2,11.8c0,5,1.4,9,4.2,12
								c2.8,3.1,6.3,4.6,10.5,4.6c4.1,0,7.5-1.6,10.3-4.7c2.8-3.1,4.2-7.1,4.2-11.9c0-4.8-1.4-8.7-4.1-11.7S609.2-237,605-237
								L605-237L605-237z"/>
							<path id="Fill-8" class="st0" d="M669-249.9c5,0,9.8,1.3,14.2,4c4.4,2.6,7.9,6.2,10.4,10.7c2.5,4.5,3.7,9.4,3.7,14.6
								c0,5.3-1.3,10.2-3.7,14.8c-2.5,4.6-5.9,8.1-10.2,10.7c-4.3,2.6-9.1,3.9-14.3,3.9c-7.6,0-14.2-2.9-19.6-8.5
								c-5.4-5.7-8.1-12.6-8.1-20.7c0-8.7,3.1-16,9.2-21.8C655.8-247.4,662-249.9,669-249.9L669-249.9L669-249.9z M669.2-236.7
								c-4.2,0-7.6,1.5-10.4,4.5c-2.8,3-4.1,6.9-4.1,11.6c0,4.9,1.4,8.8,4.1,11.8c2.7,3,6.2,4.5,10.4,4.5c4.2,0,7.7-1.5,10.4-4.6
								c2.8-3,4.2-6.9,4.2-11.7c0-4.8-1.4-8.7-4.1-11.6C676.9-235.2,673.4-236.7,669.2-236.7L669.2-236.7L669.2-236.7z"/>
							<path id="Fill-9" class="st0" d="M733.2-249.9c5,0,9.8,1.3,14.2,4c4.4,2.6,7.9,6.2,10.4,10.7c2.5,4.5,3.7,9.4,3.7,14.6
								c0,5.3-1.3,10.2-3.7,14.8c-2.5,4.6-5.9,8.1-10.2,10.7c-4.3,2.6-9.1,3.9-14.3,3.9c-7.6,0-14.2-2.9-19.6-8.5
								c-5.4-5.7-8.1-12.6-8.1-20.7c0-8.7,3.1-16,9.2-21.8C720.1-247.4,726.3-249.9,733.2-249.9L733.2-249.9L733.2-249.9z
								 M733.4-236.7c-4.1,0-7.6,1.5-10.4,4.5c-2.8,3-4.1,6.9-4.1,11.6c0,4.9,1.4,8.8,4.1,11.8c2.7,3,6.2,4.5,10.4,4.5
								s7.7-1.5,10.4-4.6c2.8-3,4.2-6.9,4.2-11.7c0-4.8-1.4-8.7-4.1-11.6C741.2-235.2,737.7-236.7,733.4-236.7L733.4-236.7
								L733.4-236.7z"/>
							<path id="Fill-10" class="st0" d="M772.5-270h13.4v44.5l19.7-23h16.8l-22.9,26.7l25.7,29h-16.6l-22.6-25.7v25.7h-13.4V-270"
								/>
						</g>
					</g>
				</g>
			</g>
		</g>
	</g>
</g>
</svg>
